<?xml version="1.0" standalone="no"?>
<!DOCTYPE svg PUBLIC "-//W3C//DTD SVG 20010904//EN"
 "http://www.w3.org/TR/2001/REC-SVG-20010904/DTD/svg10.dtd">
<svg version="1.0" xmlns="http://www.w3.org/2000/svg"
 width="240.000000pt" height="240.000000pt" viewBox="0 0 240.000000 240.000000"
 preserveAspectRatio="xMidYMid meet">
<metadata>
Created by potrace 1.14, written by Peter Selinger 2001-2017
</metadata>
<g transform="translate(0.000000,240.000000) scale(0.100000,-0.100000)"
fill="#000000" stroke="none">
<path d="M270 2339 c0 -31 11 -51 67 -121 37 -45 74 -92 83 -102 8 -10 27 -33
41 -50 132 -159 709 -887 709 -894 0 -6 -3 -12 -7 -14 -5 -1 -51 -55 -104
-118 -53 -63 -158 -189 -234 -280 -76 -91 -209 -248 -294 -350 -85 -102 -158
-187 -161 -190 -3 -3 -29 -34 -58 -68 -40 -50 -52 -71 -52 -98 l0 -35 818 5
c449 3 847 5 884 6 l67 0 5 43 c3 23 8 61 11 85 10 82 17 129 47 292 16 91 32
184 35 208 5 41 5 42 -24 42 -27 0 -32 -6 -63 -81 -81 -196 -171 -278 -339
-309 -62 -11 -1058 -17 -1068 -6 -4 4 102 139 142 182 5 6 26 30 45 54 19 24
138 167 264 319 126 152 243 294 261 316 18 22 49 60 69 84 23 28 33 48 28 55
-5 6 -172 215 -372 464 -199 249 -361 455 -358 457 5 6 829 8 858 2 14 -2 43
-8 65 -12 159 -30 282 -160 311 -330 15 -86 20 -98 39 -101 20 -3 48 14 41 25
-2 3 -7 47 -11 96 -3 50 -8 110 -11 135 -2 25 -6 74 -8 110 -9 119 -17 204
-21 210 -2 4 -387 7 -855 7 l-850 0 0 -38z"/>
</g>
</svg>
